External Loads File
version=1
nRows=54
nColumns=13
Range=5.000000e-03-10 seconds
endheader
time 	forceRightX 	forceRightY 	forceRightZ 	pointRightX 	pointRightY 	pointRightZ 	forceLeftX 	forceLeftY 	forceLeftZ 	pointLeftX 	pointLeftY 	pointLeftZ 		
5.005000 363.751435 1183.785087 -0.000000 0.320823 0.141570 -0.137111 -57.241653 -69.241761 -0.000000 0.285741 0.472823 -0.372715
5.010000 372.803190 1121.782341 -0.000000 0.311660 0.138736 -0.137320 -72.341794 -65.912225 -0.000000 0.296059 0.475171 -0.372513
5.015000 376.328863 1050.731081 -0.000000 0.302458 0.136614 -0.137555 -87.543530 -62.811877 -0.000000 0.306495 0.476843 -0.372172
5.020000 372.196567 973.239634 -0.000000 0.293687 0.135018 -0.137444 -102.800914 -60.539175 -0.000000 0.316882 0.478108 -0.371717
5.025000 363.451855 890.462811 -0.000000 0.284313 0.134035 -0.138202 -118.354013 -59.087985 -0.000000 0.327151 0.478758 -0.371538
5.030000 348.228506 805.636704 -0.000000 0.275231 0.133726 -0.138850 -134.019156 -58.778025 -0.000000 0.337244 0.478778 -0.371407
5.035000 328.476173 720.482518 -0.000000 0.266358 0.134078 -0.138970 -149.686945 -59.320567 -0.000000 0.347394 0.478333 -0.371345
5.040000 305.498851 636.664975 -0.000000 0.257632 0.135000 -0.139262 -165.061839 -60.323671 -0.000000 0.357396 0.476857 -0.371051
5.045000 280.285880 555.481202 -0.000000 0.249026 0.136475 -0.139464 -179.691150 -61.408225 -0.000000 0.367223 0.475148 -0.370842
5.050000 254.256620 477.350754 -0.000000 0.240480 0.138652 -0.139751 -193.095615 -62.036936 -0.000000 0.376916 0.472959 -0.370649
5.055000 227.770182 402.524309 -0.000000 0.232108 0.141425 -0.140181 -204.712427 -61.918856 -0.000000 0.386220 0.469908 -0.370395
5.060000 200.781037 330.931330 -0.000000 0.224284 0.144859 -0.140039 -214.030470 -60.850629 -0.000000 0.395243 0.466324 -0.370194
5.065000 173.716661 262.125191 -0.000000 0.216163 0.148855 -0.140803 -220.815080 -58.151324 -0.000000 0.403713 0.462192 -0.369833
5.070000 145.994869 196.917911 -0.000000 0.208948 0.153371 -0.140706 -224.828033 -53.903300 -0.000000 0.411893 0.457595 -0.369697
5.075000 118.420460 136.230907 -0.000000 0.202033 0.158093 -0.140922 -226.249787 -47.533436 -0.000000 0.419443 0.452454 -0.369507
5.080000 92.100462 81.309785 -0.000000 0.195576 0.163367 -0.141238 -225.483148 -38.321631 -0.000000 0.426397 0.446738 -0.369376
5.085000 68.148135 33.212472 -0.000000 0.189446 0.168846 -0.141530 -223.089359 -25.557174 -0.000000 0.432693 0.440478 -0.369256
5.090000 47.555444 -7.688779 -0.000000 0.183655 0.175251 -0.141438 -219.855637 -8.007174 -0.000000 0.438257 0.433733 -0.369156
5.095000 30.864123 -41.439243 -0.000000 0.178234 0.182013 -0.141124 -216.675575 15.331518 -0.000000 0.443252 0.426452 -0.369277
5.100000 18.317763 -68.558704 -0.000000 0.173419 0.189098 -0.140571 -214.555594 45.540391 -0.000000 0.447471 0.418565 -0.369698
5.105000 9.724941 -89.878937 -0.000000 0.169143 0.197003 -0.139905 -214.321305 84.013022 -0.000000 0.450820 0.410215 -0.369918
5.110000 4.505134 -106.277499 -0.000000 0.165033 0.205533 -0.139613 -216.247805 132.055158 -0.000000 0.453405 0.401078 -0.370119
5.115000 2.187359 -118.515540 -0.000000 0.161387 0.214389 -0.139341 -220.384635 189.956751 -0.000000 0.455225 0.391371 -0.370641
5.120000 2.094636 -127.129504 -0.000000 0.158250 0.223485 -0.139360 -226.304439 257.649576 -0.000000 0.456465 0.381158 -0.371390
5.125000 3.527038 -132.329122 -0.000000 0.154999 0.232936 -0.140125 -233.248759 334.276284 -0.000000 0.457212 0.370797 -0.371961
5.130000 6.242410 -134.120115 -0.000000 0.152913 0.242521 -0.140181 -241.287347 417.748389 -0.000000 0.457496 0.360076 -0.372063
5.135000 9.943109 -132.595609 -0.000000 0.151495 0.252321 -0.140312 -250.313796 506.218974 -0.000000 0.457507 0.349210 -0.372200
5.140000 14.417320 -128.135873 -0.000000 0.150694 0.262546 -0.140343 -260.151342 598.324402 -0.000000 0.457189 0.338094 -0.372303
5.145000 19.803645 -121.369595 -0.000000 0.150348 0.272753 -0.140571 -271.919799 692.492763 -0.000000 0.456513 0.326860 -0.372711
5.150000 25.900693 -113.072748 -0.000000 0.150553 0.283226 -0.140667 -285.130769 787.439967 -0.000000 0.455679 0.315658 -0.372691
5.155000 32.538629 -103.910087 -0.000000 0.151475 0.293738 -0.140484 -299.605306 881.054282 -0.000000 0.454192 0.304456 -0.372659
5.160000 39.338476 -94.344604 -0.000000 0.153023 0.304435 -0.140403 -314.374582 971.679821 -0.000000 0.452258 0.293447 -0.372764
5.165000 45.999150 -84.526634 -0.000000 0.155203 0.314854 -0.140164 -329.879086 1058.075776 -0.000000 0.449938 0.282544 -0.372401
5.170000 52.063715 -74.461212 -0.000000 0.157871 0.325299 -0.139753 -344.543507 1140.488744 -0.000000 0.446977 0.271801 -0.372309
5.175000 57.355370 -64.005724 -0.000000 0.161462 0.335498 -0.139704 -358.042444 1219.351092 -0.000000 0.443436 0.261210 -0.372301
5.180000 61.915605 -53.083831 -0.000000 0.165476 0.345286 -0.139477 -370.607393 1295.303695 -0.000000 0.439366 0.250831 -0.372391
5.185000 65.832316 -42.009042 -0.000000 0.170063 0.354972 -0.139220 -379.166820 1369.891182 -0.000000 0.434935 0.240563 -0.372535
5.190000 69.430500 -31.189794 -0.000000 0.175165 0.364083 -0.139264 -384.440633 1443.002898 -0.000000 0.430139 0.230522 -0.372560
5.195000 72.747159 -21.375446 -0.000000 0.180610 0.372757 -0.139014 -384.272052 1514.405511 -0.000000 0.424777 0.220882 -0.372483
5.200000 75.385722 -13.456774 -0.000000 0.186945 0.381545 -0.138647 -373.252166 1583.651064 -0.000000 0.418899 0.211879 -0.372524
5.205000 76.614361 -7.837625 -0.000000 0.193759 0.390067 -0.138292 -349.997067 1648.421110 -0.000000 0.412424 0.203150 -0.372504
5.210000 75.533933 -4.359159 -0.000000 0.201098 0.398196 -0.137932 -314.997933 1705.559897 -0.000000 0.405503 0.194923 -0.372597
5.215000 71.383065 -2.485436 -0.000000 0.208988 0.406160 -0.137550 -266.134911 1752.211666 -0.000000 0.398140 0.187056 -0.372670
5.220000 63.794100 -1.109598 -0.000000 0.217375 0.413707 -0.137175 -205.489173 1784.801507 -0.000000 0.390286 0.179655 -0.372678
5.225000 52.903781 1.105164 -0.000000 0.226247 0.420515 -0.136798 -136.688405 1800.248356 -0.000000 0.381979 0.172949 -0.372661
5.230000 39.348176 5.405505 -0.000000 0.235434 0.426930 -0.136421 -62.279920 1796.627148 -0.000000 0.373303 0.167027 -0.372772
5.235000 24.131542 12.783950 -0.000000 0.245278 0.432502 -0.135338 15.718949 1773.113692 -0.000000 0.364252 0.161838 -0.372765
5.240000 8.376246 23.847298 -0.000000 0.254892 0.437437 -0.135497 90.444244 1730.179400 -0.000000 0.354818 0.157261 -0.372791
5.245000 -6.771999 38.507475 -0.000000 0.264931 0.441763 -0.134946 161.508984 1669.468611 -0.000000 0.345147 0.153433 -0.372951
5.250000 -20.269478 56.126916 -0.000000 0.275523 0.445412 -0.134258 226.918669 1593.354734 -0.000000 0.335314 0.150127 -0.373136
5.255000 -31.524698 75.506027 -0.000000 0.285969 0.448080 -0.134047 280.595420 1505.623272 -0.000000 0.325359 0.147482 -0.373357
5.260000 -40.131832 95.257826 -0.000000 0.296614 0.450134 -0.133651 324.202433 1409.511646 -0.000000 0.315235 0.145508 -0.373708
5.265000 -46.302402 113.927361 -0.000000 0.307167 0.451842 -0.133190 355.560154 1308.991420 -0.000000 0.305106 0.144158 -0.374092
5.270000 -50.420071 130.411830 -0.000000 0.317646 0.453199 -0.132764 375.503628 1207.247463 -0.000000 0.294953 0.143434 -0.374446
